<?xml version="1.0" encoding="UTF-8"?>
<svg version="1.1" xmlns="http://www.w3.org/2000/svg" width="320" height="320">
<path d="M0 0 C5.1822703 4.55601407 9.85312751 9.30429191 14.2109375 14.6484375 C15.04367187 15.64359375 15.87640625 16.63875 16.734375 17.6640625 C32.6879365 37.05608706 43.04124963 59.39000538 49.2109375 83.6484375 C49.39027832 84.32648438 49.56961914 85.00453125 49.75439453 85.703125 C59.33184115 123.59443316 50.75422533 168.1656449 31.0546875 201.35546875 C21.88605925 216.24991956 10.79426063 230.57210354 -2.7890625 241.6484375 C-3.78421875 242.48117187 -4.779375 243.31390625 -5.8046875 244.171875 C-25.19671206 260.1254365 -47.53063038 270.47874963 -71.7890625 276.6484375 C-72.46710938 276.82777832 -73.14515625 277.00711914 -73.84375 277.19189453 C-111.73505816 286.76934115 -156.3062699 278.19172533 -189.49609375 258.4921875 C-204.39054456 249.32355925 -218.71272854 238.23176063 -229.7890625 224.6484375 C-230.62179688 223.65328125 -231.45453125 222.658125 -232.3125 221.6328125 C-248.2660615 202.24078794 -258.61937463 179.90686962 -264.7890625 155.6484375 C-265.05807373 154.63136719 -265.05807373 154.63136719 -265.33251953 153.59375 C-274.90996615 115.70244184 -266.33235033 71.1312301 -246.6328125 37.94140625 C-237.46418425 23.04695544 -226.37238563 8.72477146 -212.7890625 -2.3515625 C-211.79390625 -3.18429688 -210.79875 -4.01703125 -209.7734375 -4.875 C-190.38141294 -20.8285615 -168.04749462 -31.18187463 -143.7890625 -37.3515625 C-143.11101562 -37.53090332 -142.43296875 -37.71024414 -141.734375 -37.89501953 C-91.57455175 -50.57346883 -38.38783361 -32.36621265 0 0 Z " fill="#CF1D22" transform="translate(267.7890625,40.3515625)"/>
<path d="M0 0 C5.81737909 4.46125804 9.34784433 10.49365847 10.42578125 17.74609375 C10.74733777 26.16015593 8.64290649 32.61674496 3.41796875 39.1875 C0.98046875 41.75 0.98046875 41.75 -2.01953125 43.75 C-2.48647975 46.01575799 -2.48647975 46.01575799 -2.42739868 48.69561768 C-2.44875885 50.26438911 -2.44875885 50.26438911 -2.47055054 51.86485291 C-2.47076202 53.0170784 -2.47097351 54.16930389 -2.47119141 55.35644531 C-2.48287354 56.56629593 -2.49455566 57.77614655 -2.5065918 59.0226593 C-2.5344934 62.34738128 -2.54851943 65.6715397 -2.55423403 68.99633503 C-2.55858485 71.07387305 -2.56695724 73.15135508 -2.57673264 75.22887421 C-2.61050297 82.47829549 -2.62761624 89.7275537 -2.63037109 96.97705078 C-2.63340316 103.73133026 -2.67380698 110.48469259 -2.73151934 117.23870587 C-2.779329 123.03840283 -2.80010319 128.83779753 -2.80016172 134.63769031 C-2.80069953 138.10124638 -2.81225903 141.56390568 -2.85133743 145.02725983 C-2.8939286 148.89385841 -2.88037754 152.75916471 -2.86181641 156.62597656 C-2.8822702 157.77010513 -2.902724 158.9142337 -2.92379761 160.09303284 C-2.95797574 165.80771471 -2.95797574 165.80771471 -0.46728134 170.7469101 C1.28018658 172.23961664 3.07113305 173.47812983 4.98046875 174.75 C9.40873168 180.60893249 10.73793513 186.59364416 10.40234375 193.85546875 C9.25247833 201.74482316 5.3140982 208.10975126 -0.77734375 213.2265625 C-7.83198326 218.02800916 -15.86883133 217.90386414 -24.01953125 216.75 C-31.06633743 214.1298043 -36.79422398 209.55340717 -39.98046875 202.67578125 C-41.92016426 197.29268134 -41.93408169 193.05888147 -41.45703125 187.375 C-41.3374402 182.81674114 -41.51357844 179.90112912 -44.43359375 176.40234375 C-46.92070433 173.82273569 -49.62571678 171.53909137 -52.3684082 169.23876953 C-54.75929259 167.08297876 -56.77295818 164.65621048 -58.86547852 162.21459961 C-63.23983227 157.20960118 -67.80405528 152.38885494 -72.42407227 147.61083984 C-73.61563568 146.36722813 -74.79536979 145.11217657 -75.96313477 143.84619141 C-82.58324314 136.23656409 -82.58324314 136.23656409 -91.37036133 131.99633789 C-94.49959138 131.96433865 -94.49959138 131.96433865 -97.36132812 132.44555664 C-102.86318847 133.07568337 -107.72454385 130.45031696 -112.0546875 127.2421875 C-116.48462818 123.19786798 -119.62977728 118.62083993 -121.01953125 112.75 C-120.76441772 111.3412561 -120.76441772 111.3412561 -120.50415039 109.90405273 C-119.56740542 104.65262776 -119.57450571 100.89180482 -122.57125854 96.45004272 C-127.87884674 90.09966604 -133.98190306 84.51701532 -140.01953125 78.875 C-141.8534419 77.11137523 -143.68420913 75.34447556 -145.51171875 73.57421875 C-149.97865979 69.26093081 -154.48315495 64.99013765 -159.01953125 60.75 C-159.13633204 74.89264949 -159.22417078 89.0352242 -159.27859211 103.17825699 C-159.30470894 109.74514723 -159.34014624 116.31171395 -159.39672852 122.87841797 C-159.45097209 129.21319518 -159.48093606 135.5476608 -159.49391747 141.88265228 C-159.50317097 144.3020595 -159.52124054 146.72144927 -159.54818153 149.14072418 C-159.58436852 152.52420687 -159.58948072 155.90639466 -159.5871582 159.29003906 C-159.61412277 160.79731316 -159.61412277 160.79731316 -159.64163208 162.33503723 C-159.71527358 167.86528926 -159.71527358 167.86528926 -156.62077332 172.22796631 C-155.76236343 172.73023743 -154.90395355 173.23250854 -154.01953125 173.75 C-149.25045123 179.88167431 -147.39369053 186.2858954 -147.58203125 193.99609375 C-148.72497233 201.19049967 -152.28318788 207.85211388 -158.01953125 212.375 C-165.31028217 217.38739125 -173.45866299 217.67238311 -182.01953125 216.75 C-189.9405376 214.18226422 -194.78946119 208.54111909 -198.89453125 201.5625 C-201.26110494 193.54244472 -200.8685334 185.66783213 -197.43359375 178.01953125 C-195.02655021 174.15629286 -191.81905027 171.23366828 -188.01953125 168.75 C-187.35953125 168.75 -186.69953125 168.75 -186.01953125 168.75 C-186.01953125 127.5 -186.01953125 86.25 -186.01953125 43.75 C-187.66953125 43.09 -189.31953125 42.43 -191.01953125 41.75 C-196.08927276 37.32273725 -199.56229423 31.73530048 -200.3359375 24.9921875 C-200.66142073 16.78161044 -199.55129368 9.67710897 -193.92578125 3.421875 C-186.59340946 -3.37278953 -180.77801102 -4.91693914 -170.82421875 -4.625 C-163.74867087 -3.9276154 -158.47355528 -1.11820441 -153.58203125 4 C-148.37772857 10.82604005 -147.29685924 18.35588664 -148.01953125 26.75 C-148.2928125 27.56339844 -148.56609375 28.37679687 -148.84765625 29.21484375 C-149.31943097 31.97115233 -149.31943097 31.97115233 -146.95703125 34.36328125 C-145.98765625 35.25402344 -145.01828125 36.14476562 -144.01953125 37.0625 C-140.85858515 40.00441315 -137.8305975 42.90114029 -135.015625 46.17578125 C-129.84219601 52.15804588 -124.46552437 57.93738046 -118.98022461 63.63378906 C-117.71700035 64.95891537 -116.46746733 66.29723252 -115.23217773 67.6484375 C-106.04769262 77.71738399 -106.04769262 77.71738399 -93.36328125 81.5 C-91.41905273 81.55027344 -91.41905273 81.55027344 -89.43554688 81.6015625 C-82.56298181 81.90019883 -78.68554474 85.85277401 -74.14453125 90.625 C-70.61357215 94.9424 -69.01025509 98.73250137 -69.02772522 104.41546631 C-68.94064287 111.79242906 -67.47224244 115.54939142 -62.26499939 120.75079346 C-61.46083084 121.49818787 -60.65666229 122.24558228 -59.828125 123.015625 C-59.00828629 123.81989929 -58.18844757 124.62417358 -57.34376526 125.45281982 C-54.73967971 127.99571754 -52.09992507 130.49752421 -49.45703125 133 C-47.67652948 134.72528112 -45.89850527 136.45312301 -44.12304688 138.18359375 C-39.78343365 142.40244619 -35.41393038 146.58828362 -31.01953125 150.75 C-30.90272861 136.73773528 -30.81489083 122.72554604 -30.76047039 108.71289444 C-30.73435394 102.20653676 -30.69891735 95.70050565 -30.64233398 89.19433594 C-30.58808902 82.91791312 -30.55812615 76.64180481 -30.54514503 70.36516571 C-30.53589177 67.96808672 -30.51782268 65.57102534 -30.49088097 63.1740799 C-30.45469206 59.82172674 -30.44958186 56.47068046 -30.4519043 53.11816406 C-30.43392792 52.12266541 -30.41595154 51.12716675 -30.39743042 50.10150146 C-30.3213607 44.61421999 -30.3213607 44.61421999 -33.41828918 40.309021 C-34.27669907 39.79454407 -35.13510895 39.28006714 -36.01953125 38.75 C-40.89750007 31.3633615 -43.29080028 23.63564082 -42.01953125 14.75 C-39.50551254 7.1293808 -35.26061296 1.54084854 -28.15625 -2.2421875 C-18.02624591 -6.79743559 -9.41141748 -5.82524873 0 0 Z " fill="#FEFCFC" transform="translate(255.01953125,53.25)"/>
</svg>
